<svg width="114" height="25" viewBox="0 0 114 25" fill="none" xmlns="http://www.w3.org/2000/svg">
<mask id="path-1-outside-1_32_3607" maskUnits="userSpaceOnUse" x="36.011" y="8.37454" width="78" height="14" fill="black">
<rect fill="white" x="36.011" y="8.37454" width="78" height="14"/>
<path d="M37.011 16.0961C37.011 14.9868 37.2626 13.9916 37.766 13.1106C38.2693 12.2187 38.9532 11.5226 39.8176 11.0223C40.6929 10.522 41.6613 10.2718 42.7226 10.2718C43.97 10.2718 45.0587 10.5709 45.9888 11.1691C46.9188 11.7673 47.5972 12.6157 48.024 13.7142H46.235C45.9177 13.029 45.4581 12.5015 44.8563 12.1317C44.2654 11.7619 43.5542 11.577 42.7226 11.577C41.9239 11.577 41.2072 11.7619 40.5726 12.1317C39.9379 12.5015 39.4401 13.029 39.079 13.7142C38.7179 14.3886 38.5374 15.1825 38.5374 16.0961C38.5374 16.9989 38.7179 17.7929 39.079 18.4781C39.4401 19.1524 39.9379 19.6745 40.5726 20.0443C41.2072 20.4141 41.9239 20.599 42.7226 20.599C43.5542 20.599 44.2654 20.4195 44.8563 20.0606C45.4581 19.6908 45.9177 19.1633 46.235 18.4781H48.024C47.5972 19.5657 46.9188 20.4086 45.9888 21.0068C45.0587 21.5942 43.97 21.8878 42.7226 21.8878C41.6613 21.8878 40.6929 21.6431 39.8176 21.1537C38.9532 20.6533 38.2693 19.9627 37.766 19.0817C37.2626 18.2007 37.011 17.2055 37.011 16.0961Z"/>
<path d="M54.1699 21.9368C53.3274 21.9368 52.5615 21.7464 51.8721 21.3657C51.1937 20.9851 50.6576 20.4467 50.2637 19.7506C49.8807 19.0436 49.6892 18.2279 49.6892 17.3034C49.6892 16.3898 49.8862 15.585 50.2801 14.8889C50.6849 14.1819 51.232 13.6435 51.9214 13.2737C52.6107 12.893 53.3821 12.7027 54.2356 12.7027C55.089 12.7027 55.8604 12.893 56.5498 13.2737C57.2391 13.6435 57.7807 14.1765 58.1746 14.8726C58.5795 15.5686 58.7819 16.3789 58.7819 17.3034C58.7819 18.2279 58.574 19.0436 58.1582 19.7506C57.7534 20.4467 57.2008 20.9851 56.5005 21.3657C55.8003 21.7464 55.0234 21.9368 54.1699 21.9368ZM54.1699 20.6316C54.7061 20.6316 55.2094 20.5065 55.6799 20.2564C56.1504 20.0062 56.5279 19.631 56.8124 19.1307C57.1078 18.6303 57.2555 18.0213 57.2555 17.3034C57.2555 16.5856 57.1133 15.9765 56.8288 15.4762C56.5443 14.9759 56.1723 14.6061 55.7127 14.3668C55.2532 14.1166 54.7553 13.9916 54.2192 13.9916C53.6721 13.9916 53.1687 14.1166 52.7092 14.3668C52.2606 14.6061 51.8995 14.9759 51.6259 15.4762C51.3524 15.9765 51.2156 16.5856 51.2156 17.3034C51.2156 18.0321 51.3469 18.6467 51.6095 19.147C51.8831 19.6473 52.2442 20.0225 52.6928 20.2727C53.1414 20.512 53.6338 20.6316 54.1699 20.6316Z"/>
<path d="M61.5171 11.3975C61.2326 11.3975 60.9919 11.2997 60.7949 11.1039C60.598 10.9081 60.4995 10.6688 60.4995 10.386C60.4995 10.1033 60.598 9.86398 60.7949 9.6682C60.9919 9.47243 61.2326 9.37454 61.5171 9.37454C61.7906 9.37454 62.0204 9.47243 62.2064 9.6682C62.4034 9.86398 62.5019 10.1033 62.5019 10.386C62.5019 10.6688 62.4034 10.9081 62.2064 11.1039C62.0204 11.2997 61.7906 11.3975 61.5171 11.3975ZM62.2392 12.8495V21.7899H60.7457V12.8495H62.2392Z"/>
<path d="M69.167 12.6864C70.2612 12.6864 71.1475 13.0181 71.8259 13.6816C72.5043 14.3342 72.8435 15.2804 72.8435 16.5203V21.7899H71.3663V16.7324C71.3663 15.8405 71.142 15.1608 70.6934 14.6931C70.2448 14.2145 69.632 13.9752 68.8551 13.9752C68.0673 13.9752 67.4382 14.22 66.9677 14.7094C66.5081 15.1988 66.2783 15.9112 66.2783 16.8466V21.7899H64.7848V12.8495H66.2783V14.1221C66.5738 13.6653 66.9731 13.3118 67.4765 13.0616C67.9907 12.8115 68.5542 12.6864 69.167 12.6864Z"/>
<path d="M81.0113 15.933C81.427 15.9983 81.8045 16.1668 82.1437 16.4387C82.4939 16.7107 82.7674 17.0478 82.9644 17.4503C83.1723 17.8527 83.2762 18.2823 83.2762 18.7391C83.2762 19.3156 83.1285 19.8376 82.8331 20.3053C82.5376 20.7621 82.1054 21.1265 81.5365 21.3984C80.9784 21.6594 80.3164 21.7899 79.5505 21.7899H75.2832V10.4187H79.3864C80.1633 10.4187 80.8252 10.5492 81.3723 10.8102C81.9194 11.0604 82.3298 11.403 82.6033 11.838C82.8768 12.2731 83.0136 12.7625 83.0136 13.3064C83.0136 13.9807 82.8276 14.5408 82.4556 14.9868C82.0945 15.4218 81.6131 15.7372 81.0113 15.933ZM76.7768 15.3294H79.2879C79.9882 15.3294 80.5298 15.1662 80.9128 14.8399C81.2957 14.5136 81.4872 14.0623 81.4872 13.4858C81.4872 12.9094 81.2957 12.458 80.9128 12.1317C80.5298 11.8054 79.9772 11.6423 79.2551 11.6423H76.7768V15.3294ZM79.4192 20.5663C80.1633 20.5663 80.7432 20.3923 81.159 20.0443C81.5748 19.6962 81.7827 19.2122 81.7827 18.5923C81.7827 17.9614 81.5638 17.4666 81.1261 17.1076C80.6885 16.7378 80.1031 16.553 79.37 16.553H76.7768V20.5663H79.4192Z"/>
<path d="M84.7908 17.2871C84.7908 16.3735 84.9768 15.5741 85.3489 14.8889C85.7209 14.1928 86.2297 13.6544 86.8752 13.2737C87.5318 12.893 88.2594 12.7027 89.0581 12.7027C89.846 12.7027 90.5298 12.8713 91.1097 13.2085C91.6897 13.5456 92.1219 13.9698 92.4064 14.481V12.8495H93.9163V21.7899H92.4064V20.1258C92.1109 20.6479 91.6678 21.083 91.0769 21.431C90.497 21.7682 89.8186 21.9368 89.0417 21.9368C88.243 21.9368 87.5208 21.741 86.8752 21.3494C86.2297 20.9579 85.7209 20.4086 85.3489 19.7017C84.9768 18.9947 84.7908 18.1898 84.7908 17.2871ZM92.4064 17.3034C92.4064 16.6291 92.2696 16.0418 91.996 15.5414C91.7225 15.0411 91.3505 14.6605 90.88 14.3994C90.4204 14.1275 89.9116 13.9916 89.3536 13.9916C88.7955 13.9916 88.2867 14.1221 87.8272 14.3831C87.3676 14.6441 87.0011 15.0248 86.7275 15.5251C86.454 16.0254 86.3172 16.6128 86.3172 17.2871C86.3172 17.9723 86.454 18.5705 86.7275 19.0817C87.0011 19.582 87.3676 19.9681 87.8272 20.24C88.2867 20.5011 88.7955 20.6316 89.3536 20.6316C89.9116 20.6316 90.4204 20.5011 90.88 20.24C91.3505 19.9681 91.7225 19.582 91.996 19.0817C92.2696 18.5705 92.4064 17.9778 92.4064 17.3034Z"/>
<path d="M99.6244 21.9368C98.9351 21.9368 98.3168 21.8226 97.7697 21.5942C97.2227 21.3549 96.7905 21.0286 96.4731 20.6153C96.1558 20.1911 95.9808 19.7071 95.9479 19.1633H97.4907C97.5345 19.6092 97.7424 19.9736 98.1144 20.2564C98.4974 20.5391 98.9952 20.6805 99.608 20.6805C100.177 20.6805 100.626 20.5555 100.954 20.3053C101.282 20.0551 101.446 19.7397 101.446 19.3591C101.446 18.9675 101.271 18.6793 100.921 18.4944C100.571 18.2986 100.029 18.1083 99.2961 17.9234C98.6287 17.7494 98.0816 17.5753 97.6549 17.4013C97.2391 17.2164 96.878 16.9499 96.5716 16.6019C96.2762 16.243 96.1285 15.7753 96.1285 15.1988C96.1285 14.742 96.2652 14.3233 96.5388 13.9426C96.8123 13.5619 97.2008 13.2628 97.7041 13.0453C98.2074 12.8169 98.7819 12.7027 99.4274 12.7027C100.423 12.7027 101.227 12.9529 101.84 13.4532C102.453 13.9535 102.781 14.6387 102.825 15.5088H101.331C101.298 15.0411 101.107 14.6659 100.757 14.3831C100.418 14.1003 99.9581 13.9589 99.3782 13.9589C98.8421 13.9589 98.4153 14.0731 98.098 14.3015C97.7807 14.5299 97.622 14.829 97.622 15.1988C97.622 15.4925 97.715 15.7372 97.901 15.933C98.098 16.1179 98.3387 16.2702 98.6232 16.3898C98.9186 16.4986 99.3235 16.6236 99.8378 16.765C100.483 16.9391 101.009 17.1131 101.413 17.2871C101.818 17.4503 102.163 17.7004 102.447 18.0376C102.743 18.3747 102.896 18.8152 102.907 19.3591C102.907 19.8485 102.77 20.289 102.497 20.6805C102.223 21.0721 101.835 21.3821 101.331 21.6105C100.839 21.828 100.27 21.9368 99.6244 21.9368Z"/>
<path d="M113.222 16.9771C113.222 17.2599 113.205 17.559 113.173 17.8744H105.984C106.038 18.7554 106.339 19.4461 106.886 19.9464C107.444 20.4358 108.117 20.6805 108.905 20.6805C109.551 20.6805 110.087 20.5337 110.514 20.24C110.951 19.9355 111.258 19.5331 111.433 19.0328H113.041C112.8 19.892 112.319 20.5935 111.597 21.1373C110.875 21.6703 109.977 21.9368 108.905 21.9368C108.052 21.9368 107.286 21.7464 106.607 21.3657C105.94 20.9851 105.415 20.4467 105.032 19.7506C104.649 19.0436 104.457 18.2279 104.457 17.3034C104.457 16.3789 104.643 15.5686 105.015 14.8726C105.387 14.1765 105.907 13.6435 106.575 13.2737C107.253 12.893 108.03 12.7027 108.905 12.7027C109.759 12.7027 110.514 12.8876 111.17 13.2574C111.827 13.6272 112.33 14.1384 112.68 14.791C113.041 15.4327 113.222 16.1614 113.222 16.9771ZM111.679 16.6672C111.679 16.1016 111.553 15.6176 111.301 15.2152C111.05 14.8019 110.705 14.4919 110.267 14.2852C109.841 14.0677 109.365 13.9589 108.84 13.9589C108.085 13.9589 107.439 14.1982 106.903 14.6768C106.378 15.1553 106.077 15.8188 106 16.6672H111.679Z"/>
</mask>
<path d="M37.011 16.0961C37.011 14.9868 37.2626 13.9916 37.766 13.1106C38.2693 12.2187 38.9532 11.5226 39.8176 11.0223C40.6929 10.522 41.6613 10.2718 42.7226 10.2718C43.97 10.2718 45.0587 10.5709 45.9888 11.1691C46.9188 11.7673 47.5972 12.6157 48.024 13.7142H46.235C45.9177 13.029 45.4581 12.5015 44.8563 12.1317C44.2654 11.7619 43.5542 11.577 42.7226 11.577C41.9239 11.577 41.2072 11.7619 40.5726 12.1317C39.9379 12.5015 39.4401 13.029 39.079 13.7142C38.7179 14.3886 38.5374 15.1825 38.5374 16.0961C38.5374 16.9989 38.7179 17.7929 39.079 18.4781C39.4401 19.1524 39.9379 19.6745 40.5726 20.0443C41.2072 20.4141 41.9239 20.599 42.7226 20.599C43.5542 20.599 44.2654 20.4195 44.8563 20.0606C45.4581 19.6908 45.9177 19.1633 46.235 18.4781H48.024C47.5972 19.5657 46.9188 20.4086 45.9888 21.0068C45.0587 21.5942 43.97 21.8878 42.7226 21.8878C41.6613 21.8878 40.6929 21.6431 39.8176 21.1537C38.9532 20.6533 38.2693 19.9627 37.766 19.0817C37.2626 18.2007 37.011 17.2055 37.011 16.0961Z" fill="white"/>
<path d="M54.1699 21.9368C53.3274 21.9368 52.5615 21.7464 51.8721 21.3657C51.1937 20.9851 50.6576 20.4467 50.2637 19.7506C49.8807 19.0436 49.6892 18.2279 49.6892 17.3034C49.6892 16.3898 49.8862 15.585 50.2801 14.8889C50.6849 14.1819 51.232 13.6435 51.9214 13.2737C52.6107 12.893 53.3821 12.7027 54.2356 12.7027C55.089 12.7027 55.8604 12.893 56.5498 13.2737C57.2391 13.6435 57.7807 14.1765 58.1746 14.8726C58.5795 15.5686 58.7819 16.3789 58.7819 17.3034C58.7819 18.2279 58.574 19.0436 58.1582 19.7506C57.7534 20.4467 57.2008 20.9851 56.5005 21.3657C55.8003 21.7464 55.0234 21.9368 54.1699 21.9368ZM54.1699 20.6316C54.7061 20.6316 55.2094 20.5065 55.6799 20.2564C56.1504 20.0062 56.5279 19.631 56.8124 19.1307C57.1078 18.6303 57.2555 18.0213 57.2555 17.3034C57.2555 16.5856 57.1133 15.9765 56.8288 15.4762C56.5443 14.9759 56.1723 14.6061 55.7127 14.3668C55.2532 14.1166 54.7553 13.9916 54.2192 13.9916C53.6721 13.9916 53.1687 14.1166 52.7092 14.3668C52.2606 14.6061 51.8995 14.9759 51.6259 15.4762C51.3524 15.9765 51.2156 16.5856 51.2156 17.3034C51.2156 18.0321 51.3469 18.6467 51.6095 19.147C51.8831 19.6473 52.2442 20.0225 52.6928 20.2727C53.1414 20.512 53.6338 20.6316 54.1699 20.6316Z" fill="white"/>
<path d="M61.5171 11.3975C61.2326 11.3975 60.9919 11.2997 60.7949 11.1039C60.598 10.9081 60.4995 10.6688 60.4995 10.386C60.4995 10.1033 60.598 9.86398 60.7949 9.6682C60.9919 9.47243 61.2326 9.37454 61.5171 9.37454C61.7906 9.37454 62.0204 9.47243 62.2064 9.6682C62.4034 9.86398 62.5019 10.1033 62.5019 10.386C62.5019 10.6688 62.4034 10.9081 62.2064 11.1039C62.0204 11.2997 61.7906 11.3975 61.5171 11.3975ZM62.2392 12.8495V21.7899H60.7457V12.8495H62.2392Z" fill="white"/>
<path d="M69.167 12.6864C70.2612 12.6864 71.1475 13.0181 71.8259 13.6816C72.5043 14.3342 72.8435 15.2804 72.8435 16.5203V21.7899H71.3663V16.7324C71.3663 15.8405 71.142 15.1608 70.6934 14.6931C70.2448 14.2145 69.632 13.9752 68.8551 13.9752C68.0673 13.9752 67.4382 14.22 66.9677 14.7094C66.5081 15.1988 66.2783 15.9112 66.2783 16.8466V21.7899H64.7848V12.8495H66.2783V14.1221C66.5738 13.6653 66.9731 13.3118 67.4765 13.0616C67.9907 12.8115 68.5542 12.6864 69.167 12.6864Z" fill="white"/>
<path d="M81.0113 15.933C81.427 15.9983 81.8045 16.1668 82.1437 16.4387C82.4939 16.7107 82.7674 17.0478 82.9644 17.4503C83.1723 17.8527 83.2762 18.2823 83.2762 18.7391C83.2762 19.3156 83.1285 19.8376 82.8331 20.3053C82.5376 20.7621 82.1054 21.1265 81.5365 21.3984C80.9784 21.6594 80.3164 21.7899 79.5505 21.7899H75.2832V10.4187H79.3864C80.1633 10.4187 80.8252 10.5492 81.3723 10.8102C81.9194 11.0604 82.3298 11.403 82.6033 11.838C82.8768 12.2731 83.0136 12.7625 83.0136 13.3064C83.0136 13.9807 82.8276 14.5408 82.4556 14.9868C82.0945 15.4218 81.6131 15.7372 81.0113 15.933ZM76.7768 15.3294H79.2879C79.9882 15.3294 80.5298 15.1662 80.9128 14.8399C81.2957 14.5136 81.4872 14.0623 81.4872 13.4858C81.4872 12.9094 81.2957 12.458 80.9128 12.1317C80.5298 11.8054 79.9772 11.6423 79.2551 11.6423H76.7768V15.3294ZM79.4192 20.5663C80.1633 20.5663 80.7432 20.3923 81.159 20.0443C81.5748 19.6962 81.7827 19.2122 81.7827 18.5923C81.7827 17.9614 81.5638 17.4666 81.1261 17.1076C80.6885 16.7378 80.1031 16.553 79.37 16.553H76.7768V20.5663H79.4192Z" fill="white"/>
<path d="M84.7908 17.2871C84.7908 16.3735 84.9768 15.5741 85.3489 14.8889C85.7209 14.1928 86.2297 13.6544 86.8752 13.2737C87.5318 12.893 88.2594 12.7027 89.0581 12.7027C89.846 12.7027 90.5298 12.8713 91.1097 13.2085C91.6897 13.5456 92.1219 13.9698 92.4064 14.481V12.8495H93.9163V21.7899H92.4064V20.1258C92.1109 20.6479 91.6678 21.083 91.0769 21.431C90.497 21.7682 89.8186 21.9368 89.0417 21.9368C88.243 21.9368 87.5208 21.741 86.8752 21.3494C86.2297 20.9579 85.7209 20.4086 85.3489 19.7017C84.9768 18.9947 84.7908 18.1898 84.7908 17.2871ZM92.4064 17.3034C92.4064 16.6291 92.2696 16.0418 91.996 15.5414C91.7225 15.0411 91.3505 14.6605 90.88 14.3994C90.4204 14.1275 89.9116 13.9916 89.3536 13.9916C88.7955 13.9916 88.2867 14.1221 87.8272 14.3831C87.3676 14.6441 87.0011 15.0248 86.7275 15.5251C86.454 16.0254 86.3172 16.6128 86.3172 17.2871C86.3172 17.9723 86.454 18.5705 86.7275 19.0817C87.0011 19.582 87.3676 19.9681 87.8272 20.24C88.2867 20.5011 88.7955 20.6316 89.3536 20.6316C89.9116 20.6316 90.4204 20.5011 90.88 20.24C91.3505 19.9681 91.7225 19.582 91.996 19.0817C92.2696 18.5705 92.4064 17.9778 92.4064 17.3034Z" fill="white"/>
<path d="M99.6244 21.9368C98.9351 21.9368 98.3168 21.8226 97.7697 21.5942C97.2227 21.3549 96.7905 21.0286 96.4731 20.6153C96.1558 20.1911 95.9808 19.7071 95.9479 19.1633H97.4907C97.5345 19.6092 97.7424 19.9736 98.1144 20.2564C98.4974 20.5391 98.9952 20.6805 99.608 20.6805C100.177 20.6805 100.626 20.5555 100.954 20.3053C101.282 20.0551 101.446 19.7397 101.446 19.3591C101.446 18.9675 101.271 18.6793 100.921 18.4944C100.571 18.2986 100.029 18.1083 99.2961 17.9234C98.6287 17.7494 98.0816 17.5753 97.6549 17.4013C97.2391 17.2164 96.878 16.9499 96.5716 16.6019C96.2762 16.243 96.1285 15.7753 96.1285 15.1988C96.1285 14.742 96.2652 14.3233 96.5388 13.9426C96.8123 13.5619 97.2008 13.2628 97.7041 13.0453C98.2074 12.8169 98.7819 12.7027 99.4274 12.7027C100.423 12.7027 101.227 12.9529 101.84 13.4532C102.453 13.9535 102.781 14.6387 102.825 15.5088H101.331C101.298 15.0411 101.107 14.6659 100.757 14.3831C100.418 14.1003 99.9581 13.9589 99.3782 13.9589C98.8421 13.9589 98.4153 14.0731 98.098 14.3015C97.7807 14.5299 97.622 14.829 97.622 15.1988C97.622 15.4925 97.715 15.7372 97.901 15.933C98.098 16.1179 98.3387 16.2702 98.6232 16.3898C98.9186 16.4986 99.3235 16.6236 99.8378 16.765C100.483 16.9391 101.009 17.1131 101.413 17.2871C101.818 17.4503 102.163 17.7004 102.447 18.0376C102.743 18.3747 102.896 18.8152 102.907 19.3591C102.907 19.8485 102.77 20.289 102.497 20.6805C102.223 21.0721 101.835 21.3821 101.331 21.6105C100.839 21.828 100.27 21.9368 99.6244 21.9368Z" fill="white"/>
<path d="M113.222 16.9771C113.222 17.2599 113.205 17.559 113.173 17.8744H105.984C106.038 18.7554 106.339 19.4461 106.886 19.9464C107.444 20.4358 108.117 20.6805 108.905 20.6805C109.551 20.6805 110.087 20.5337 110.514 20.24C110.951 19.9355 111.258 19.5331 111.433 19.0328H113.041C112.8 19.892 112.319 20.5935 111.597 21.1373C110.875 21.6703 109.977 21.9368 108.905 21.9368C108.052 21.9368 107.286 21.7464 106.607 21.3657C105.94 20.9851 105.415 20.4467 105.032 19.7506C104.649 19.0436 104.457 18.2279 104.457 17.3034C104.457 16.3789 104.643 15.5686 105.015 14.8726C105.387 14.1765 105.907 13.6435 106.575 13.2737C107.253 12.893 108.03 12.7027 108.905 12.7027C109.759 12.7027 110.514 12.8876 111.17 13.2574C111.827 13.6272 112.33 14.1384 112.68 14.791C113.041 15.4327 113.222 16.1614 113.222 16.9771ZM111.679 16.6672C111.679 16.1016 111.553 15.6176 111.301 15.2152C111.05 14.8019 110.705 14.4919 110.267 14.2852C109.841 14.0677 109.365 13.9589 108.84 13.9589C108.085 13.9589 107.439 14.1982 106.903 14.6768C106.378 15.1553 106.077 15.8188 106 16.6672H111.679Z" fill="white"/>
<path d="M37.011 16.0961C37.011 14.9868 37.2626 13.9916 37.766 13.1106C38.2693 12.2187 38.9532 11.5226 39.8176 11.0223C40.6929 10.522 41.6613 10.2718 42.7226 10.2718C43.97 10.2718 45.0587 10.5709 45.9888 11.1691C46.9188 11.7673 47.5972 12.6157 48.024 13.7142H46.235C45.9177 13.029 45.4581 12.5015 44.8563 12.1317C44.2654 11.7619 43.5542 11.577 42.7226 11.577C41.9239 11.577 41.2072 11.7619 40.5726 12.1317C39.9379 12.5015 39.4401 13.029 39.079 13.7142C38.7179 14.3886 38.5374 15.1825 38.5374 16.0961C38.5374 16.9989 38.7179 17.7929 39.079 18.4781C39.4401 19.1524 39.9379 19.6745 40.5726 20.0443C41.2072 20.4141 41.9239 20.599 42.7226 20.599C43.5542 20.599 44.2654 20.4195 44.8563 20.0606C45.4581 19.6908 45.9177 19.1633 46.235 18.4781H48.024C47.5972 19.5657 46.9188 20.4086 45.9888 21.0068C45.0587 21.5942 43.97 21.8878 42.7226 21.8878C41.6613 21.8878 40.6929 21.6431 39.8176 21.1537C38.9532 20.6533 38.2693 19.9627 37.766 19.0817C37.2626 18.2007 37.011 17.2055 37.011 16.0961Z" stroke="white" stroke-width="0.4" mask="url(#path-1-outside-1_32_3607)"/>
<path d="M54.1699 21.9368C53.3274 21.9368 52.5615 21.7464 51.8721 21.3657C51.1937 20.9851 50.6576 20.4467 50.2637 19.7506C49.8807 19.0436 49.6892 18.2279 49.6892 17.3034C49.6892 16.3898 49.8862 15.585 50.2801 14.8889C50.6849 14.1819 51.232 13.6435 51.9214 13.2737C52.6107 12.893 53.3821 12.7027 54.2356 12.7027C55.089 12.7027 55.8604 12.893 56.5498 13.2737C57.2391 13.6435 57.7807 14.1765 58.1746 14.8726C58.5795 15.5686 58.7819 16.3789 58.7819 17.3034C58.7819 18.2279 58.574 19.0436 58.1582 19.7506C57.7534 20.4467 57.2008 20.9851 56.5005 21.3657C55.8003 21.7464 55.0234 21.9368 54.1699 21.9368ZM54.1699 20.6316C54.7061 20.6316 55.2094 20.5065 55.6799 20.2564C56.1504 20.0062 56.5279 19.631 56.8124 19.1307C57.1078 18.6303 57.2555 18.0213 57.2555 17.3034C57.2555 16.5856 57.1133 15.9765 56.8288 15.4762C56.5443 14.9759 56.1723 14.6061 55.7127 14.3668C55.2532 14.1166 54.7553 13.9916 54.2192 13.9916C53.6721 13.9916 53.1687 14.1166 52.7092 14.3668C52.2606 14.6061 51.8995 14.9759 51.6259 15.4762C51.3524 15.9765 51.2156 16.5856 51.2156 17.3034C51.2156 18.0321 51.3469 18.6467 51.6095 19.147C51.8831 19.6473 52.2442 20.0225 52.6928 20.2727C53.1414 20.512 53.6338 20.6316 54.1699 20.6316Z" stroke="white" stroke-width="0.4" mask="url(#path-1-outside-1_32_3607)"/>
<path d="M61.5171 11.3975C61.2326 11.3975 60.9919 11.2997 60.7949 11.1039C60.598 10.9081 60.4995 10.6688 60.4995 10.386C60.4995 10.1033 60.598 9.86398 60.7949 9.6682C60.9919 9.47243 61.2326 9.37454 61.5171 9.37454C61.7906 9.37454 62.0204 9.47243 62.2064 9.6682C62.4034 9.86398 62.5019 10.1033 62.5019 10.386C62.5019 10.6688 62.4034 10.9081 62.2064 11.1039C62.0204 11.2997 61.7906 11.3975 61.5171 11.3975ZM62.2392 12.8495V21.7899H60.7457V12.8495H62.2392Z" stroke="white" stroke-width="0.4" mask="url(#path-1-outside-1_32_3607)"/>
<path d="M69.167 12.6864C70.2612 12.6864 71.1475 13.0181 71.8259 13.6816C72.5043 14.3342 72.8435 15.2804 72.8435 16.5203V21.7899H71.3663V16.7324C71.3663 15.8405 71.142 15.1608 70.6934 14.6931C70.2448 14.2145 69.632 13.9752 68.8551 13.9752C68.0673 13.9752 67.4382 14.22 66.9677 14.7094C66.5081 15.1988 66.2783 15.9112 66.2783 16.8466V21.7899H64.7848V12.8495H66.2783V14.1221C66.5738 13.6653 66.9731 13.3118 67.4765 13.0616C67.9907 12.8115 68.5542 12.6864 69.167 12.6864Z" stroke="white" stroke-width="0.4" mask="url(#path-1-outside-1_32_3607)"/>
<path d="M81.0113 15.933C81.427 15.9983 81.8045 16.1668 82.1437 16.4387C82.4939 16.7107 82.7674 17.0478 82.9644 17.4503C83.1723 17.8527 83.2762 18.2823 83.2762 18.7391C83.2762 19.3156 83.1285 19.8376 82.8331 20.3053C82.5376 20.7621 82.1054 21.1265 81.5365 21.3984C80.9784 21.6594 80.3164 21.7899 79.5505 21.7899H75.2832V10.4187H79.3864C80.1633 10.4187 80.8252 10.5492 81.3723 10.8102C81.9194 11.0604 82.3298 11.403 82.6033 11.838C82.8768 12.2731 83.0136 12.7625 83.0136 13.3064C83.0136 13.9807 82.8276 14.5408 82.4556 14.9868C82.0945 15.4218 81.6131 15.7372 81.0113 15.933ZM76.7768 15.3294H79.2879C79.9882 15.3294 80.5298 15.1662 80.9128 14.8399C81.2957 14.5136 81.4872 14.0623 81.4872 13.4858C81.4872 12.9094 81.2957 12.458 80.9128 12.1317C80.5298 11.8054 79.9772 11.6423 79.2551 11.6423H76.7768V15.3294ZM79.4192 20.5663C80.1633 20.5663 80.7432 20.3923 81.159 20.0443C81.5748 19.6962 81.7827 19.2122 81.7827 18.5923C81.7827 17.9614 81.5638 17.4666 81.1261 17.1076C80.6885 16.7378 80.1031 16.553 79.37 16.553H76.7768V20.5663H79.4192Z" stroke="white" stroke-width="0.4" mask="url(#path-1-outside-1_32_3607)"/>
<path d="M84.7908 17.2871C84.7908 16.3735 84.9768 15.5741 85.3489 14.8889C85.7209 14.1928 86.2297 13.6544 86.8752 13.2737C87.5318 12.893 88.2594 12.7027 89.0581 12.7027C89.846 12.7027 90.5298 12.8713 91.1097 13.2085C91.6897 13.5456 92.1219 13.9698 92.4064 14.481V12.8495H93.9163V21.7899H92.4064V20.1258C92.1109 20.6479 91.6678 21.083 91.0769 21.431C90.497 21.7682 89.8186 21.9368 89.0417 21.9368C88.243 21.9368 87.5208 21.741 86.8752 21.3494C86.2297 20.9579 85.7209 20.4086 85.3489 19.7017C84.9768 18.9947 84.7908 18.1898 84.7908 17.2871ZM92.4064 17.3034C92.4064 16.6291 92.2696 16.0418 91.996 15.5414C91.7225 15.0411 91.3505 14.6605 90.88 14.3994C90.4204 14.1275 89.9116 13.9916 89.3536 13.9916C88.7955 13.9916 88.2867 14.1221 87.8272 14.3831C87.3676 14.6441 87.0011 15.0248 86.7275 15.5251C86.454 16.0254 86.3172 16.6128 86.3172 17.2871C86.3172 17.9723 86.454 18.5705 86.7275 19.0817C87.0011 19.582 87.3676 19.9681 87.8272 20.24C88.2867 20.5011 88.7955 20.6316 89.3536 20.6316C89.9116 20.6316 90.4204 20.5011 90.88 20.24C91.3505 19.9681 91.7225 19.582 91.996 19.0817C92.2696 18.5705 92.4064 17.9778 92.4064 17.3034Z" stroke="white" stroke-width="0.4" mask="url(#path-1-outside-1_32_3607)"/>
<path d="M99.6244 21.9368C98.9351 21.9368 98.3168 21.8226 97.7697 21.5942C97.2227 21.3549 96.7905 21.0286 96.4731 20.6153C96.1558 20.1911 95.9808 19.7071 95.9479 19.1633H97.4907C97.5345 19.6092 97.7424 19.9736 98.1144 20.2564C98.4974 20.5391 98.9952 20.6805 99.608 20.6805C100.177 20.6805 100.626 20.5555 100.954 20.3053C101.282 20.0551 101.446 19.7397 101.446 19.3591C101.446 18.9675 101.271 18.6793 100.921 18.4944C100.571 18.2986 100.029 18.1083 99.2961 17.9234C98.6287 17.7494 98.0816 17.5753 97.6549 17.4013C97.2391 17.2164 96.878 16.9499 96.5716 16.6019C96.2762 16.243 96.1285 15.7753 96.1285 15.1988C96.1285 14.742 96.2652 14.3233 96.5388 13.9426C96.8123 13.5619 97.2008 13.2628 97.7041 13.0453C98.2074 12.8169 98.7819 12.7027 99.4274 12.7027C100.423 12.7027 101.227 12.9529 101.84 13.4532C102.453 13.9535 102.781 14.6387 102.825 15.5088H101.331C101.298 15.0411 101.107 14.6659 100.757 14.3831C100.418 14.1003 99.9581 13.9589 99.3782 13.9589C98.8421 13.9589 98.4153 14.0731 98.098 14.3015C97.7807 14.5299 97.622 14.829 97.622 15.1988C97.622 15.4925 97.715 15.7372 97.901 15.933C98.098 16.1179 98.3387 16.2702 98.6232 16.3898C98.9186 16.4986 99.3235 16.6236 99.8378 16.765C100.483 16.9391 101.009 17.1131 101.413 17.2871C101.818 17.4503 102.163 17.7004 102.447 18.0376C102.743 18.3747 102.896 18.8152 102.907 19.3591C102.907 19.8485 102.77 20.289 102.497 20.6805C102.223 21.0721 101.835 21.3821 101.331 21.6105C100.839 21.828 100.27 21.9368 99.6244 21.9368Z" stroke="white" stroke-width="0.4" mask="url(#path-1-outside-1_32_3607)"/>
<path d="M113.222 16.9771C113.222 17.2599 113.205 17.559 113.173 17.8744H105.984C106.038 18.7554 106.339 19.4461 106.886 19.9464C107.444 20.4358 108.117 20.6805 108.905 20.6805C109.551 20.6805 110.087 20.5337 110.514 20.24C110.951 19.9355 111.258 19.5331 111.433 19.0328H113.041C112.8 19.892 112.319 20.5935 111.597 21.1373C110.875 21.6703 109.977 21.9368 108.905 21.9368C108.052 21.9368 107.286 21.7464 106.607 21.3657C105.94 20.9851 105.415 20.4467 105.032 19.7506C104.649 19.0436 104.457 18.2279 104.457 17.3034C104.457 16.3789 104.643 15.5686 105.015 14.8726C105.387 14.1765 105.907 13.6435 106.575 13.2737C107.253 12.893 108.03 12.7027 108.905 12.7027C109.759 12.7027 110.514 12.8876 111.17 13.2574C111.827 13.6272 112.33 14.1384 112.68 14.791C113.041 15.4327 113.222 16.1614 113.222 16.9771ZM111.679 16.6672C111.679 16.1016 111.553 15.6176 111.301 15.2152C111.05 14.8019 110.705 14.4919 110.267 14.2852C109.841 14.0677 109.365 13.9589 108.84 13.9589C108.085 13.9589 107.439 14.1982 106.903 14.6768C106.378 15.1553 106.077 15.8188 106 16.6672H111.679Z" stroke="white" stroke-width="0.4" mask="url(#path-1-outside-1_32_3607)"/>
<path d="M20.1654 23.612H27.4934C29.0717 23.612 30.3118 22.1839 30.3118 20.5177C30.3118 18.8516 29.0717 17.4234 27.4934 17.4234C26.9297 17.4234 26.366 17.4234 25.8023 17.4234C28.0571 12.306 26.9297 1 16.7833 1C10.019 1 6.63689 5.16537 6.63689 13.6151H5.50951C3.02928 13.6151 1 15.8763 1 18.6135C1 21.3508 3.02928 23.612 5.50951 23.612H11.1464H20.1654Z" stroke="white" stroke-width="2" stroke-linecap="round" stroke-linejoin="round"/>
<path d="M16.733 12.1568L14.8326 12.7916L13.8846 9.95372L15.7556 9.32864C16.1443 9.19878 16.5577 9.22556 16.921 9.40284L16.9211 9.40289C17.2845 9.57996 17.5525 9.88534 17.6789 10.2636C17.8053 10.6418 17.7745 11.0467 17.5905 11.4066L17.5904 11.4069C17.4113 11.7582 17.1085 12.0232 16.733 12.1568ZM12.5933 10.3844L12.9886 10.2524L15.3202 17.2316L14.9249 17.3637C14.6816 17.445 14.542 17.7083 14.6253 17.9576C14.7086 18.2069 14.9784 18.3335 15.2218 18.2522L16.8773 17.6991L17.0055 18.0828C17.0888 18.3321 17.3586 18.4587 17.6019 18.3774C17.8452 18.2961 17.9848 18.0328 17.9015 17.7835L17.7733 17.3998L18.1511 17.2736L18.2792 17.6573C18.3625 17.9066 18.6324 18.0331 18.8757 17.9519C19.1195 17.8704 19.2581 17.6069 19.175 17.358L19.0467 16.9742C20.4349 16.4925 21.194 14.9988 20.732 13.6159C20.3873 12.5842 19.4619 11.9119 18.4337 11.8236C18.7174 11.2655 18.7877 10.6019 18.5747 9.96434C18.2238 8.91399 17.2169 8.26936 16.1531 8.31242L15.9932 7.83403L15.9932 7.83399C15.9101 7.58524 15.6407 7.4583 15.3972 7.53966C15.1541 7.62088 15.0142 7.88406 15.0975 8.13329L15.226 8.5179L14.8482 8.64409L14.7197 8.25953C14.7197 8.25951 14.7197 8.2595 14.7197 8.25949C14.6365 8.01023 14.3665 7.884 14.1234 7.96521C13.8803 8.04642 13.7404 8.3096 13.8237 8.55883L13.9522 8.94344L13.4531 9.11018L13.4529 9.10958L13.2158 9.18879L12.2965 9.49591C12.0531 9.57721 11.9136 9.84058 11.9969 10.0898C12.0801 10.3391 12.35 10.4657 12.5933 10.3844ZM19.7351 15.2257L19.7351 15.2258C19.5246 15.6385 19.1647 15.9472 18.7194 16.096L16.216 16.9324L15.1296 13.6805L17.0006 13.0554C17.0132 13.0512 17.0253 13.0467 17.0342 13.0435L17.6328 12.8435C18.078 12.6948 18.5514 12.7257 18.9678 12.9288L18.9679 12.9289C19.3842 13.1318 19.6915 13.4817 19.8363 13.9151C19.9811 14.3488 19.9458 14.8129 19.7351 15.2257Z" fill="white" stroke="white" stroke-width="0.5"/>
</svg>
